# xmcd
#
# Track frame offsets:
#	150
#	20868
#	34139
#	54109
#	71091
#	83429
#	88844
#	103705
#	119718
#	135762
#	148516
#	161437
#	174598
#	188748
#	208351
#	220763
#	235237
#	249370
#	265248
#
# Disc length: 3788 seconds
#
# Revision: 0
# Processed by: cddbd v1.5.1PL0 Copyright (c) Steve Scherf et al.
# Submitted via: audiograbber 1.83.01
#
DISCID=0c0eca13
DTITLE=Various Artist - 56 дшб. (2001)
DYEAR=1900
DGENRE=
TTITLE0=Mr. Credo. - Держи бакшиш.
TTITLE1=Ахлям Газолиев. - За два дня до дембеля.
TTITLE2=Каскад. - Батальная разведка.
TTITLE3=Дмитрий Краснобаев. - Над Гардезом.
TTITLE4=Евгений Бунтов. - Про Андрюху.
TTITLE5=Валерий Петряев. - Десантный взвод.
TTITLE6=Олег Ширяев. - Там за горизонтом.
TTITLE7=Александр Розенбаум. - Караван.
TTITLE8=Контингент. - Я вернусь.
TTITLE9=Сергей Зимцов. - Над Афганистаном.
TTITLE10=Александр Кулаев. - Письмо из дома.
TTITLE11=Еыгений Бунтов. - Умный в гору не пойдет.
TTITLE12=Владимир Пухов. - Засада.
TTITLE13=Михаил Круг. - Про Афганистан.
TTITLE14=Дмитрий Краснобаев. - Привет, Афган.
TTITLE15=Евгений Бунтов. - Какая разница, Сержант.
TTITLE16=Сергей Земцов. - 56 наша дшб.
TTITLE17=Поворот. - Мы уходим.
TTITLE18=Леонид Мухин. - Виват, шурави!
EXTD=
EXTT0=
EXTT1=
EXTT2=
EXTT3=
EXTT4=
EXTT5=
EXTT6=
EXTT7=
EXTT8=
EXTT9=
EXTT10=
EXTT11=
EXTT12=
EXTT13=
EXTT14=
EXTT15=
EXTT16=
EXTT17=
EXTT18=
PLAYORDER=
